<?xml version="1.0" encoding="UTF-8"?>
<!-- Generator: Adobe Illustrator 28.7.0, SVG Export Plug-In . SVG Version: 9.03 Build 54939)  -->
<svg version="1.1" id="Logo" xmlns="http://www.w3.org/2000/svg" xmlns:xlink="http://www.w3.org/1999/xlink" x="0px" y="0px" viewBox="0 0 188.9 84.6" style="enable-background:new 0 0 188.9 84.6;" xml:space="preserve">
<style type="text/css">
	.st0{fill:#FFFFFF;}
	.st1{fill:#F2B221;}
	.st2{fill:none;}
	.st3{fill:url(#SVGID_1_);}
</style>
<g>
	<g>
		<g>
			<path class="st0" d="M115.4,32.7c0,0-0.1,0.1-0.1,0.1v0h6.4v-6.3C119.2,28.4,117.1,30.5,115.4,32.7z"/>
			<path class="st0" d="M121.7,25V5.8h7.1V0.7h-20.7v5.1h7.1v25.6C117,29.1,119.2,27,121.7,25z"/>
			<path class="st1" d="M115.3,31.4v1.5c0,0,0.1-0.1,0.1-0.1c1.7-2.2,3.8-4.3,6.3-6.2V25C119.2,27,117,29.1,115.3,31.4z"/>
		</g>
		<g>
			<path class="st0" d="M137.6,0.7h-6.4v18.6c2-1,4.2-1.9,6.4-2.8V0.7z"/>
			<path class="st0" d="M131.2,32.8h6.4V18c-2.3,0.9-4.4,1.8-6.4,2.8V32.8z"/>
			<path class="st1" d="M131.2,19.2v1.5c2-1,4.2-1.9,6.4-2.8v-1.5C135.4,17.3,133.2,18.3,131.2,19.2z"/>
		</g>
		<g>
			<path class="st2" d="M148.9,15.4h2.8c1.8,0,2.6-0.8,3-2.1c-2,0.4-3.9,0.8-5.8,1.2V15.4z"/>
			<path class="st2" d="M151.7,5.4h-2.8v7.7c2-0.5,4-0.9,6.1-1.3c0.1-0.7,0.1-1.5,0.1-2.3C155,6.5,153.8,5.4,151.7,5.4z"/>
			<path class="st0" d="M148.9,5.4h2.8c2,0,3.3,1.1,3.3,4c0,0.8,0,1.6-0.1,2.3c2.1-0.4,4.3-0.7,6.5-1c0.1-0.6,0.1-1.3,0.1-2.1     c0-5.2-2.8-8-7.2-8h-11.9v14.2c2.1-0.6,4.2-1.2,6.4-1.8V5.4z"/>
			<path class="st0" d="M151.7,15.4h-2.8v-0.9c-2.2,0.5-4.3,1.1-6.4,1.8v16.5h6.4V20.1h1.7c4.5,0,4.5,2.6,4.6,5.3     c0.1,2-0.3,5.4,0.7,7.4h6.3c-0.6-2.8-0.8-7.1-0.8-9c0-5.5-4.2-5.9-5.6-6v-0.1c3-0.6,4.8-1.9,5.4-5.4c-2.2,0.3-4.4,0.6-6.5,1     C154.3,14.6,153.5,15.4,151.7,15.4z"/>
			<path class="st1" d="M154.9,11.8c0,0.6-0.1,1.1-0.2,1.5c2.1-0.4,4.3-0.7,6.5-1c0.1-0.5,0.2-1,0.2-1.5     C159.2,11,157,11.4,154.9,11.8z"/>
			<path class="st1" d="M148.9,13.1c-2.2,0.5-4.3,1.1-6.4,1.8v1.5c2.1-0.6,4.2-1.2,6.4-1.8V13.1z"/>
		</g>
		<g>
			<path class="st2" d="M171.2,15.4h2.8c2.7,0,3.2-1.7,3.3-4.2c-2.1,0-4.1,0.1-6.1,0.2V15.4z"/>
			<path class="st2" d="M174,5.4h-2.8v4.5c2-0.1,4.1-0.2,6.1-0.2c0-0.1,0-0.2,0-0.3C177.3,6.5,176.1,5.4,174,5.4z"/>
			<path class="st0" d="M177.3,11.2c-0.1,2.5-0.6,4.2-3.3,4.2h-2.8v-4c-2.2,0.1-4.3,0.3-6.4,0.5v21h6.4V20.1h1.7     c4.5,0,4.5,2.6,4.6,5.3c0.1,2-0.3,5.4,0.7,7.4h6.3c-0.6-2.8-0.8-7.1-0.8-9c0-5.5-4.2-5.9-5.6-6v-0.1c3.3-0.7,5.1-2.2,5.6-6.4     c-1.7-0.1-3.5-0.1-5.3-0.1C178,11.2,177.7,11.2,177.3,11.2z"/>
			<path class="st0" d="M171.2,5.4h2.8c2,0,3.3,1.1,3.3,4c0,0.1,0,0.2,0,0.3c0.4,0,0.7,0,1.1,0c1.8,0,3.6,0,5.4,0.1     c0-0.4,0-0.7,0-1.1c0-5.2-2.8-8-7.2-8h-11.9v9.7c2.1-0.2,4.2-0.4,6.4-0.5V5.4z"/>
			<path class="st1" d="M178.4,9.7c-0.4,0-0.7,0-1.1,0c0,0.5,0,1,0,1.5c0.4,0,0.7,0,1.1,0c1.8,0,3.5,0,5.3,0.1     c0.1-0.5,0.1-0.9,0.1-1.5C182,9.7,180.2,9.7,178.4,9.7z"/>
			<path class="st1" d="M171.2,9.9c-2.2,0.1-4.3,0.3-6.4,0.5v1.5c2.1-0.2,4.2-0.4,6.4-0.5V9.9z"/>
		</g>
	</g>
</g>
<g>
	<radialGradient id="SVGID_1_" cx="98.1706" cy="47.4902" r="19.5014" gradientUnits="userSpaceOnUse">
		<stop offset="0.4" style="stop-color:#F2B221"/>
		<stop offset="1" style="stop-color:#F2B221;stop-opacity:0"/>
	</radialGradient>
	<path class="st3" d="M98.2,28c-10.8,0-19.5,8.7-19.5,19.5c0,10.8,8.7,19.5,19.5,19.5s19.5-8.7,19.5-19.5   C117.7,36.7,108.9,28,98.2,28z M98.9,58.6c-5.9,0-10-4.9-10-12c0-6.3,3.5-10.3,9.1-10.3c4.6,0,9.5,3.6,9.5,11.6   C107.5,58.1,100.3,58.6,98.9,58.6z"/>
</g>
<path class="st0" d="M188.1,37.6c0,1.3-1.1,2.3-2.3,2.3c-1.3,0-2.3-1-2.3-2.3c0-1.3,1.1-2.4,2.3-2.4C187,35.2,188.1,36.3,188.1,37.6  z M183.9,37.6c0,1.1,0.9,1.9,1.8,1.9c1,0,1.8-0.8,1.8-1.9c0-1.1-0.8-1.9-1.8-1.9C184.7,35.7,183.9,36.5,183.9,37.6z M185.8,36.3  c0.3,0,0.9,0.1,0.9,0.7c0,0.4-0.3,0.6-0.5,0.7l0.5,1.2h-0.5l-0.4-1.1h-0.4v1.1H185v-2.6H185.8z M185.5,36.6v0.8h0.3  c0.3,0,0.5-0.1,0.5-0.4c0-0.2-0.2-0.4-0.4-0.4H185.5z M48.6,54.9c-0.4,0-0.4,0.4-0.5,0.6c-0.2,1.2-0.6,1.8-1.3,2.1  c-0.8,0.3-2.2,0.3-3,0.3c-3.2,0-4-0.5-4.1-2.4c0-0.5,0-8.2,0-8.2c0,0,0,0,0,0c0,0,0,0,0,0c0.4,0,3.8,0.1,5,0.2  c1,0.1,1.6,0.8,1.6,1.9c0,0.4,0.2,0.5,0.4,0.5c0.2,0,0.4-0.1,0.4-0.6v-4c0-0.2-0.1-0.3-0.1-0.4c-0.1-0.1-0.2-0.1-0.3-0.1  c-0.2,0-0.3,0.1-0.4,0.3c-0.2,0.2-0.4,0.5-1,0.6c-0.6,0.1-2.4,0.1-5.2,0.1c-0.1,0-0.3,0-0.3,0c0,0,0-0.1,0-0.1v-8.8  c0-0.1,0-0.1,0-0.1c0.5,0,4.2,0,4.7,0.1c1.6,0.2,1.9,0.5,2.1,1c0.1,0.3,0.2,0.8,0.2,1.1c0,0.4,0.2,0.6,0.4,0.6  c0.3,0,0.4-0.2,0.4-0.8l0-3.3c0-0.4-0.2-0.5-0.3-0.5c-0.1,0-0.2,0-0.3,0.1c-0.2,0.1-0.5,0.2-1.9,0.2l-10.8,0c-0.3,0-0.4,0.2-0.4,0.4  c0,0.2,0.2,0.4,0.5,0.4c0.3,0,0.8,0,1,0.1c1,0.2,1.2,0.7,1.2,1.6l0,0c0,0.8,0.1,17-0.1,19.1c-0.2,2-0.6,2.1-1.7,2.1l-2.6,0  c-0.1,0-0.1,0-0.2,0c-1.3,0-2.8-0.3-3.2-2.3l-2.3-20.9l0-0.1c0-0.4-0.1-0.8-0.5-0.8c-0.4,0-0.6,0.4-0.7,0.6l-9.2,19.6  c0,0-9.4-19.3-9.6-19.7c-0.2-0.3-0.3-0.6-0.7-0.6c-0.5,0-0.5,0.6-0.6,0.8C5.3,35.7,3,56.4,2.9,57c-0.2,1.8-0.7,1.9-2,1.9  c-0.3,0-0.5,0.2-0.5,0.4c0,0.4,0.4,0.5,0.7,0.5c0,0,0.4,0,0.4,0c1.1,0,1.7,0.3,1.8,1.9h0l0,12.8c0,2.8-0.1,6.3-0.3,7.2  c-0.2,0.8-0.7,0.8-1.3,0.8c-0.1,0-0.2,0-0.3,0c-0.4,0-0.4,0.3-0.4,0.4c0,0.5,0.5,0.5,0.7,0.5h7c0.5,0,0.7-0.2,0.7-0.5  c0-0.1-0.1-0.4-0.6-0.4c-1.6,0-2.1-0.1-2.3-1c-0.1-0.6-0.2-2-0.2-4.1c0-0.6,0-1.3,0-2.1c0-2.4,0-4.5,0-4.7l13.5,0  c0,0.3,0.1,9.6-0.3,11.1c-0.2,0.8-0.7,0.8-1.3,0.8c-0.1,0-0.2,0-0.3,0c-0.4,0-0.4,0.3-0.4,0.4c0,0.5,0.5,0.5,0.7,0.5h7  c0.6,0,0.7-0.3,0.7-0.5c0-0.2-0.1-0.4-0.5-0.4c-1.5,0-2.2-0.1-2.4-1.1c-0.1-0.6-0.2-3.2-0.2-7.5c0-1.4,0-2.9,0-4.6  c0-3.9,0.1-7.8,0.1-7.8c0-1.6,0.7-1.8,1.9-1.8h5.7c1.1,0,1.8,0.2,1.8,1.7l0,0c0,0.8,0.1,17-0.1,19.1c-0.2,2-0.6,2.1-1.7,2.1  c-0.2,0-0.3,0-0.3,0.1c-0.1,0.1-0.1,0.2-0.1,0.3c0,0.3,0.2,0.4,0.7,0.4h11.6c1.3,0,1.7,0,1.9-1c0.2-0.7,0.4-2.8,0.4-3.1  c0-0.2,0-0.7-0.4-0.7c-0.4,0-0.4,0.4-0.5,0.6c-0.2,1.2-0.6,1.8-1.3,2.1c-0.8,0.3-2.2,0.3-3,0.3c-3.2,0-4-0.5-4.1-2.4  c0-0.5,0-8.2,0-8.2c0,0,0,0,0,0c0,0,0,0,0,0c0.4,0,3.8,0.1,5,0.2c1,0.1,1.6,0.8,1.6,1.9c0,0.4,0.2,0.5,0.4,0.5  c0.2,0,0.4-0.1,0.4-0.6v-4c0-0.2-0.1-0.3-0.1-0.4c-0.1-0.1-0.2-0.1-0.3-0.1c-0.2,0-0.3,0.1-0.4,0.3c-0.2,0.2-0.4,0.5-1,0.6  c-0.6,0.1-2.4,0.1-5.2,0.1c-0.1,0-0.3,0-0.3,0c0,0,0-0.1,0-0.1c0,0,0-8.9,0-8.9c0.5,0,4.2,0,4.7,0.1c1.6,0.2,1.9,0.5,2.1,1  c0.1,0.3,0.2,0.8,0.2,1.1c0,0.4,0.2,0.6,0.4,0.6c0.3,0,0.4-0.2,0.4-0.8l0-2.6h3c1.3,0,1.7,0,1.9-1c0.2-0.7,0.4-2.8,0.4-3.1  C48.9,55.4,48.9,54.9,48.6,54.9z M25.6,58.5c-0.2,0.2-0.6,0.3-1.1,0.3c0,0,0,0,0,0h-6.1c-0.2,0-0.7,0-0.7,0.5c0,0.2,0.2,0.4,0.4,0.4  c1.3,0.1,1.7,0.2,1.8,1.7c0,0.7,0.1,7.5,0.1,7.5H6.5l0,0c0,0,0-6.6,0.1-7.5c0.1-1.5,0.5-1.6,1.8-1.7c0.3,0,0.4-0.2,0.4-0.4  c0-0.5-0.5-0.5-0.7-0.5c0,0-0.8,0-0.8,0c-0.9,0-1.5-0.1-1.8-0.4c-0.2-0.2-0.2-0.4-0.2-0.7c0-1.3,1.1-13.6,1.3-15.7  c0,0,7.5,15.5,7.8,16.1c0.7,1.4,0.8,1.5,1.1,1.5c0.3,0,0.4-0.1,1-1.3c0.4-0.7,6.8-14.4,7.8-16.5l1.5,15.9  C25.8,57.9,25.8,58.3,25.6,58.5z M107.4,56.3c2.3-2.4,3.5-5.7,3.5-9.3c0-7.3-5.1-12.1-12.7-12.1c-5.1,0-8.1,2.4-9.7,4.4  c-1.9,2.3-3,5.4-3,8.3c0,6.1,3.9,12.7,12.6,12.7c0.3,0,0.6,0,0.9,0l-8.7,18.5c0,0-7.6-15.6-9.2-19h2.2c0.3,0,0.6,0,0.6-0.5  c0-0.4-0.5-0.4-0.7-0.4c-1.3,0-2.8-0.3-3.2-2.3l-2.3-20.9l0-0.1c0-0.4-0.1-0.8-0.5-0.8c-0.4,0-0.6,0.4-0.7,0.6l-9.2,19.6  c0,0-9.4-19.3-9.6-19.7c-0.2-0.3-0.3-0.6-0.7-0.6c-0.5,0-0.5,0.6-0.6,0.8c0,0.2-2.3,20.8-2.4,21.4c-0.2,1.8-0.7,1.9-2,1.9h-2  c-0.3,0-0.7,0-0.7,0.5c0,0.1,0,0.2,0.1,0.3c0.1,0.1,0.2,0.1,0.4,0.1c1.9,0,2.1,0.7,2.1,1.9c0.1,2.6,0.2,15.6,0,18.1  c-0.2,2.6-0.4,2.7-1.8,2.7c-0.3,0-0.5,0.2-0.5,0.4c0,0.4,0.5,0.4,0.7,0.4h6.9c0.5,0,0.7-0.1,0.7-0.5c0-0.2-0.1-0.4-0.5-0.4  c-2,0-2.3-0.1-2.5-1.6c-0.2-2.3-0.2-7.7-0.2-7.8c0,0,0,0,0-0.1c0,0,3.9,0.1,3.9,0.1c0.1,0,0.2,0,0.3,0.1c0.2,0.2,4.4,6.2,6,7.9  c1.6,1.7,2.6,2.2,5,2.2l2.6,0c0.6,0,0.8-0.1,0.8-0.5c0-0.2-0.1-0.4-0.4-0.4c0,0-0.1,0-0.1,0c-2,0-3.4-0.8-5.4-3  c-1.6-1.8-5.4-6.7-5.9-7.3l0,0c2.6-2.4,3.8-4.8,3.8-7.4c0-2.3-1.4-3.9-2.3-4.5c-1.5-1-3.2-1.4-4.9-1.5c0,0,0,0,0,0c0,0,0,0,0,0  c-0.1,0-0.3,0-0.4,0c-0.7,0-1.1-0.2-1.3-0.4c-0.2-0.2-0.2-0.4-0.2-0.7c0-1.3,1.1-13.6,1.3-15.7c0,0,7.5,15.5,7.8,16.1  c0.7,1.4,0.8,1.5,1.1,1.5c0.3,0,0.4-0.1,1-1.3c0.4-0.7,6.8-14.4,7.8-16.5l1.5,15.9c0,0.2,0,0.6-0.2,0.9c-0.2,0.2-0.6,0.3-1.1,0.3  c-0.3,0-0.5,0.2-0.5,0.5c0,0.4,0.5,0.4,0.7,0.4h3.6c-0.1,1-2.2,20.3-2.3,20.9c-0.2,1.8-0.7,1.9-2,1.9c-0.3,0-0.5,0.2-0.5,0.4  c0,0.4,0.4,0.5,0.7,0.5h5.8c0.2,0,0.8,0,0.8-0.5c0-0.2-0.2-0.4-0.5-0.4c-0.9,0-1.5-0.1-1.8-0.4c-0.2-0.2-0.2-0.4-0.2-0.7  c0-1.3,1.1-13.6,1.3-15.7c0,0,7.5,15.5,7.8,16.1c0.7,1.4,0.8,1.5,1.1,1.5c0.3,0,0.4-0.1,1-1.3c0.4-0.7,6.8-14.4,7.8-16.5l1.5,15.9  c0,0.2,0,0.6-0.2,0.9c-0.2,0.2-0.6,0.3-1.1,0.3c-0.3,0-0.5,0.2-0.5,0.5c0,0.4,0.5,0.4,0.7,0.4h7.4c0.3,0,0.6,0,0.6-0.5  c0-0.4-0.5-0.4-0.7-0.4c-1.3,0-2.8-0.3-3.2-2.3l-2.2-20.3c0.1,0,0.1,0,0.2,0C103.4,59.3,105.7,58.1,107.4,56.3z M57.3,60.3  c3.3,0,5.3,2.3,5.3,6.2c0,2.2-0.7,3.9-1.9,4.7l0,0c-0.7,0.5-1.6,0.6-2.3,0.6c-1.4,0-2.8-0.2-3.2-0.5c-0.1-0.1-0.1-0.1-0.1-0.2V60.7  c0-0.1,0-0.2,0.1-0.2C55.5,60.4,56.4,60.3,57.3,60.3z M98.9,58.6c-5.9,0-10-4.9-10-12c0-6.3,3.5-10.3,9.1-10.3  c4.6,0,9.5,3.6,9.5,11.6C107.5,58.1,100.3,58.6,98.9,58.6z M187.7,54.8c-0.4,0-0.5,0.4-0.5,0.6c-0.1,0.6-0.4,1.4-0.8,1.8  c-0.7,0.8-1.7,0.9-4.3,0.9c-2.5,0-3.1-0.2-3.4-2.5c-0.3-3-0.2-14.1-0.1-17.8c0-1.1,0.3-1.7,1.8-1.7c0.6,0,0.7-0.2,0.7-0.4  c0-0.1,0-0.2-0.1-0.3c-0.2-0.1-0.4-0.1-0.6-0.1l-7.1,0c-0.2,0-0.7,0-0.7,0.5c0,0.2,0.2,0.4,0.5,0.4c1.6,0,2.1,0.3,2.3,1.7  c0.1,1.4,0.2,17.7-0.1,19.3c-0.2,1.5-0.3,1.7-1.7,1.8c-0.4,0-0.5,0.3-0.5,0.5c0,0.4,0.3,0.4,0.8,0.4h5c0.1,0,0.9,0,1.5,0.2  c0.7,0.2,1,0.8,1.1,3.5c0,0,0.4,14,0.4,14.5c0,0-15.4-17.7-15.9-18.2h5.4c0.6,0,0.8-0.1,0.8-0.5c0-0.2-0.1-0.4-0.5-0.4  c-1.8,0-2.7-0.8-3.7-3.4c-1.7-4-7.5-19.2-7.5-19.4c-0.4-1-0.5-1.3-0.9-1.3c-0.3,0-0.5,0.3-0.9,1.4c-0.1,0.2-5.9,16.2-7.3,20  c-1.1,2.7-2.1,2.7-3.2,2.7l-0.1,0c-0.3,0-0.5,0.2-0.5,0.4c0,0.5,0.6,0.5,0.8,0.5h2.4c0.1,0,0.9,0,1.5,0.2c0.7,0.2,1,0.8,1.1,3.5  c0,0,0.4,14,0.4,14.5l-15.9-18.2h8c0.5,0,0.7-0.1,0.7-0.5c0-0.4-0.5-0.4-0.8-0.4c-1.9,0-2-0.2-2.2-2c-0.2-1.9-0.2-16.8-0.1-19  c0.1-1.5,0.5-1.6,1.8-1.7c0.3,0,0.4-0.2,0.4-0.4c0-0.5-0.5-0.5-0.7-0.5H139c-0.3,0-0.7,0-0.7,0.5c0,0.1,0,0.4,0.6,0.4  c1.1,0,1.7,0.3,1.8,1.9l0,0c0.1,2.7,0.1,16.8-0.1,18.8c-0.2,1.8-0.3,2-2.2,2c0,0,0,0,0,0c-1.9,0-3.3-0.8-5.2-3  c-1.6-1.8-5.4-6.7-5.9-7.3c2.6-2.4,3.8-4.8,3.8-7.4c0-2.3-1.4-3.9-2.3-4.5c-1.8-1.3-4-1.4-5.9-1.4h-7.3c-0.3,0-0.7,0-0.7,0.4  c0,0.1,0,0.2,0.1,0.3c0.1,0.1,0.2,0.1,0.4,0.1c1.9,0,2.1,0.7,2.1,1.9c0.1,2.6,0.2,15.6,0,18.1c-0.2,2.6-0.4,2.7-1.8,2.7  c-0.3,0-0.5,0.2-0.5,0.4c0,0.4,0.5,0.4,0.7,0.4h3.3c0,0-6,16.3-7.4,20.1c-1.1,2.7-2.1,2.7-3.2,2.7l-0.1,0c-0.3,0-0.5,0.2-0.5,0.4  c0,0.5,0.6,0.5,0.8,0.5h6.1c0.5,0,0.7-0.1,0.7-0.5c0-0.1,0-0.2-0.1-0.2c-0.1-0.1-0.3-0.1-0.5-0.1c-0.8,0-1-0.2-1.2-0.3  c-0.3-0.3,0-1.2,0-1.2c0.4-1.2,2.3-6.8,2.3-6.9c0.1-0.1,0.1-0.1,0.1-0.1h6.9c0.1,0,0.1,0,0.1,0.1l2.8,7.4c0.1,0.3,0.1,0.5,0,0.6  c-0.2,0.3-0.6,0.4-1.4,0.4c-0.3,0-0.5,0.2-0.5,0.4c0,0.3,0.2,0.4,0.6,0.4h7.2c0.6,0,0.8-0.1,0.8-0.5c0-0.2-0.1-0.4-0.5-0.4  c-1.8,0-2.7-0.8-3.7-3.4c-1.6-3.9-7.1-18.4-7.5-19.4h1.9c0.5,0,0.7-0.1,0.7-0.5c0-0.2-0.1-0.4-0.5-0.4c-2,0-2.3-0.1-2.5-1.6  c-0.2-2.3-0.2-7.7-0.2-7.8c0,0,0,0,0-0.1c0,0,3.9,0.1,3.9,0.1c0.1,0,0.2,0,0.3,0.1c0.2,0.2,4.4,6.2,6,7.9c1.6,1.7,2.6,2.2,5,2.2h0.6  c0,2.4,0,18.6,0,18.8c0,2.9-0.2,3.7-0.8,3.9c-0.5,0.2-1,0.1-1.2,0.1l-0.1,0c-0.3,0-0.5,0.2-0.5,0.4c0,0.5,0.5,0.5,0.7,0.5h6.4  c0.2,0,0.8,0,0.8-0.5c0-0.2-0.1-0.4-0.5-0.4c-0.1,0-0.9,0-1.5-0.2c-0.7-0.2-1-0.8-1.1-3.5l-0.4-14.1c0,0,15.9,18.2,16.3,18.7  c0.2,0.3,0.5,0.4,0.8,0.4c0.1,0,0.1,0,0.2,0c0.1-0.1,0.4-0.1,0.4-0.5v-0.5c0-0.3,0-18.9,0-19.1c0-2.9,0.2-3.7,0.8-3.9  c0.2-0.1,0.3-0.1,0.5-0.1c0.1,0,0.7-0.1,0.7-0.1c0.3,0,0.5-0.2,0.5-0.4c0-0.5-0.5-0.5-0.7-0.5h-2.9c-0.9,0-1.1-0.2-1.3-0.3  c-0.3-0.3,0-1.2,0-1.2c0.4-1.2,2.3-6.8,2.3-6.9c0.1-0.1,0.1-0.1,0.1-0.1h6.9c0.1,0,0.1,0,0.1,0.1l2.8,7.4l0,0c0.1,0.3,0.1,0.5,0,0.6  c-0.2,0.3-0.6,0.4-1.4,0.4c-0.3,0-0.5,0.2-0.5,0.4c0,0.3,0.2,0.4,0.5,0.4c0,2.4,0,18.6,0,18.8c0,2.9-0.2,3.7-0.8,3.9  c-0.5,0.2-1,0.1-1.2,0.1l-0.1,0c-0.3,0-0.5,0.2-0.5,0.4c0,0.5,0.5,0.5,0.7,0.5h6.4c0.2,0,0.8,0,0.8-0.5c0-0.2-0.1-0.4-0.5-0.4  c-0.1,0-0.9,0-1.5-0.2c-0.7-0.2-1-0.8-1.1-3.5l-0.4-14.1c0,0,15.9,18.2,16.3,18.7c0.2,0.3,0.5,0.4,0.8,0.4c0.1,0,0.1,0,0.2,0  c0.1-0.1,0.4-0.1,0.4-0.5l0-0.5c0-0.3,0-18.9,0-19.1c0-2.9,0.2-3.7,0.8-3.9c0.2-0.1,0.3-0.1,0.5-0.1c0.1,0,0.3,0,0.4,0h0h0  c1.3,0,1.5-0.2,1.8-1c0.3-0.9,0.5-2.9,0.5-3.2C188.1,55.2,188.1,54.8,187.7,54.8z M122.7,72.5h-5.9l2.8-8.7L122.7,72.5z M126.2,47.6  L126.2,47.6c-0.7,0.5-1.6,0.6-2.3,0.6c-1.4,0-2.8-0.2-3.2-0.5c-0.1-0.1-0.1-0.1-0.1-0.2V37c0-0.1,0-0.2,0.1-0.2  c0.3-0.1,1.1-0.2,2.1-0.2c3.3,0,5.3,2.3,5.3,6.2C128,45,127.3,46.8,126.2,47.6z M156.5,48.8l2.8-8.7l3.1,8.7H156.5z"/>
<g>
</g>
<g>
</g>
<g>
</g>
<g>
</g>
<g>
</g>
<g>
</g>
</svg>